<?xml version="1.0" encoding="UTF-8" standalone="no"?>
<svg
   version="1.1"
   viewBox="0 0 88 87.999"
   id="svg3"
   sodipodi:docname="qgn_menu_blendersito.svg"
   inkscape:version="1.3 (0e150ed6c4, 2023-07-21)"
   xmlns:inkscape="http://www.inkscape.org/namespaces/inkscape"
   xmlns:sodipodi="http://sodipodi.sourceforge.net/DTD/sodipodi-0.dtd"
   xmlns="http://www.w3.org/2000/svg"
   xmlns:svg="http://www.w3.org/2000/svg">
  <defs
     id="defs3" />
  <sodipodi:namedview
     id="namedview3"
     pagecolor="#ffffff"
     bordercolor="#666666"
     borderopacity="1.0"
     inkscape:showpageshadow="2"
     inkscape:pageopacity="0.0"
     inkscape:pagecheckerboard="0"
     inkscape:deskcolor="#d1d1d1"
     inkscape:zoom="4.6648257"
     inkscape:cx="5.5736273"
     inkscape:cy="44.481833"
     inkscape:window-width="1920"
     inkscape:window-height="1017"
     inkscape:window-x="-8"
     inkscape:window-y="-8"
     inkscape:window-maximized="1"
     inkscape:current-layer="svg3" />
  <path
     id="path1"
     style="clip-rule:evenodd;fill:#0c479c;fill-opacity:1;stroke-linejoin:round;stroke-miterlimit:2"
     d="m 35.55383,9.788565 c -1.071737,0.0014 -2.162132,0.304604 -3.019532,0.908203 -1.741798,1.220599 -1.943353,3.240567 -0.390624,4.509766 l -0.0078,0.0059 9.978516,8.115234 -23.199219,0.0332 h -0.03906 c -2.511397,0.0027 -4.929845,1.647336 -5.402343,3.740234 -0.49149,2.119898 1.21644,3.888672 3.835937,3.888672 l -0.0039,0.0098 8.210937,-0.03125 c -5.957875,5.954325 -11.361748,15.853534 -9.632812,24.158203 0.997386,4.790786 2.770698,8.243787 5.259766,10.730468 a 6.745429,6.745429 0 0 0 -2.439454,5.181641 6.745429,6.745429 0 0 0 6.744141,6.746094 6.745429,6.745429 0 0 0 6.744141,-6.722656 c 3.762999,0.700426 8.089468,0.914062 12.955078,0.914062 3.773223,0 7.206264,-0.346446 10.292968,-0.988281 a 6.745429,6.745429 0 0 0 -0.0332,0.476562 6.745429,6.745429 0 0 0 6.746094,6.746094 6.745429,6.745429 0 0 0 6.746094,-6.746094 6.745429,6.745429 0 0 0 -2.289063,-5.060547 c 5.238867,-3.704838 8,-9.043425 8,-15.376953 0,-5.547558 -3.016897,-11.195896 -6.279296,-15.414062 -7.648082,-9.888693 -19.514651,-16.967008 -29.806641,-24.875 -0.0216,-0.0162 -0.03955,-0.03398 -0.0625,-0.04883 -0.783149,-0.6022 -1.836467,-0.901741 -2.908203,-0.900391 z" />
  <path
     d="m 45.209433,29.89324 c -7.81816,0 -13.367027,3.936639 -15.546931,8.743949 -5.468999,12.060698 -2.772678,22.827303 15.563409,22.827303 17.879193,0 21.523384,-12.513122 15.543093,-22.871289 -2.01763,-3.494637 -7.885253,-8.699963 -15.559571,-8.699963 z"
     fill="#ffffff"
     stroke-width="2.81684"
     id="path2"
     style="clip-rule:evenodd;fill:#ffffff;fill-opacity:1;stroke-linejoin:round;stroke-miterlimit:2"
     sodipodi:nodetypes="sssss" />
  <path
     d="m 32.554011,45.098619 c 0.175719,-3.133162 1.707468,-5.901674 4.028456,-7.857889 2.27114,-1.923065 5.321549,-3.100011 8.670185,-3.100011 3.332184,0 6.382472,1.175374 8.653612,3.100011 2.320865,1.956215 3.84613,4.724727 4.028455,7.857889 0.175719,3.216159 -1.119007,6.216721 -3.381909,8.438136 -2.320865,2.254565 -5.603324,3.680258 -9.300158,3.680258 -3.696832,0 -6.995867,-1.415748 -9.300157,-3.680258 -2.27114,-2.221415 -3.564233,-5.205402 -3.381909,-8.421561 z"
     fill="#265787"
     stroke-width="1.65774"
     id="path3"
     style="clip-rule:evenodd;fill:#ea7600;fill-opacity:1;stroke-linejoin:round;stroke-miterlimit:2" />
  <path
     d="m 43.516241,41.811676 c 0.08228,-1.467045 0.79949,-2.76335 1.88625,-3.679311 1.063419,-0.90044 2.491717,-1.451523 4.059654,-1.451523 1.560234,0 2.988475,0.550347 4.051894,1.451523 1.086702,0.915961 1.800879,2.212266 1.88625,3.679311 0.08228,1.505907 -0.523955,2.910865 -1.583517,3.951001 -1.086702,1.055659 -2.623653,1.723213 -4.354627,1.723213 -1.730973,0 -3.275686,-0.662898 -4.354627,-1.723213 -1.063419,-1.040136 -1.668886,-2.437333 -1.583516,-3.94324 z"
     fill="#265787"
     stroke-width="0.776206"
     id="path5"
     style="clip-rule:evenodd;fill:#ffffff;fill-opacity:1;stroke-linejoin:round;stroke-miterlimit:2" />
</svg>
