<?xml version="1.0" encoding="UTF-8"?>
<svg version="1.1" viewBox="0 0 88 87.999" xmlns="http://www.w3.org/2000/svg">
<g clip-rule="evenodd" stroke-linejoin="round" stroke-miterlimit="2">
<path d="m29.192 53.03c0.01755 0.99918 0.33621 2.9435 0.81419 4.4558 1.0046 3.2136 2.714 6.1841 5.0769 8.79 2.4304 2.687 5.428 4.8474 8.8846 6.3866 3.6321 1.6068 7.5748 2.4304 11.666 2.4304 4.0912-0.0054 8.0339-0.84255 11.666-2.4709 3.4566-1.5528 6.4541-3.7132 8.8846-6.4136 2.3764-2.633 4.0777-5.6035 5.0769-8.817 0.50634-1.6203 0.82634-3.2676 0.95462-4.9149 0.12557-1.6203 0.07291-3.2541-0.15798-4.8879-0.45098-3.1731-1.5528-6.1571-3.2406-8.8576-7.5974-9.9277-19.516-16.967-29.808-24.875-0.0216-0.0162-0.03916-0.03376-0.06211-0.04861-1.5663-1.2044-4.2127-1.2004-5.9275 0.0068-1.7418 1.2206-1.9443 3.2406-0.39157 4.5098l-0.0068 0.0068 9.9783 8.1149-30.38 0.0324h-0.04051c-2.5114 0.0027-4.9284 1.6473-5.4009 3.7402-0.49149 2.1199 1.2152 3.8887 3.8347 3.8887l-0.0041 0.0095 15.393-0.02971-27.545 21.064c-0.035106 0.02566-0.072913 0.05266-0.10532 0.07831-2.5925 1.9848-3.4296 5.2929-1.7958 7.3723 1.6608 2.1199 5.1849 2.1334 7.8044 0.01215l14.988-12.287s-0.21874 1.6608-0.20118 2.6465z" fill="#ea7600" stroke-width="1.3502"/>
<path d="m55.695 34.072c-3.9968 0-7.8191 1.3374-10.83 3.7812-1.5257 1.2558-2.7699 2.7412-3.6719 4.375-0.92222 1.6608-1.4987 3.5106-1.6621 5.4414-0.17283 1.9713 0.088696 3.9295 0.75977 5.7793 0.6886 1.8768 1.7963 3.6306 3.3086 5.1699 3.0924 3.1461 7.426 4.9104 12.111 4.9023 4.6717 0 9.0057-1.7953 12.098-4.9414l-0.007813 0.013672c1.5123-1.5393 2.6207-3.2952 3.3066-5.1855 0.67106-1.8498 0.93185-3.808 0.76172-5.7793-0.162-1.9444-0.73795-3.7806-1.6602-5.4414-0.9046-1.6338-2.1461-3.1137-3.6719-4.3613-3.0106-2.4453-6.8316-3.7593-10.842-3.7539z" fill="#fff" stroke-width="2.6275"/>
<path d="m45.395 47.629c0.14312-2.5519 1.3907-4.8068 3.2811-6.4001 1.8498-1.5663 4.3343-2.5249 7.0617-2.5249 2.714 0 5.1984 0.95732 7.0482 2.5249 1.8903 1.5933 3.1326 3.8482 3.2811 6.4001 0.14312 2.6195-0.91141 5.0634-2.7545 6.8727-1.8903 1.8363-4.5638 2.9975-7.5748 2.9975s-5.698-1.1531-7.5748-2.9975c-1.8498-1.8093-2.903-4.2397-2.7545-6.8592z" fill="#265787" stroke-width="1.3502"/>
</g>
</svg>
